<?xml version="1.0" standalone="no"?>
<!DOCTYPE svg PUBLIC "-//W3C//DTD SVG 20010904//EN"
 "http://www.w3.org/TR/2001/REC-SVG-20010904/DTD/svg10.dtd">
<svg version="1.0" xmlns="http://www.w3.org/2000/svg"
 width="182.000000pt" height="182.000000pt" viewBox="0 0 182.000000 182.000000"
 preserveAspectRatio="xMidYMid meet">
<metadata>
Created by potrace 1.11, written by Peter Selinger 2001-2013
</metadata>
<g transform="translate(0.000000,182.000000) scale(0.100000,-0.100000)"
fill="#000000" stroke="none">
<path d="M1059 1753 c-1 -5 -1 -11 0 -15 0 -5 -8 -8 -19 -8 -11 0 -23 -7 -26
-15 -4 -8 -10 -12 -15 -9 -5 3 -9 0 -9 -6 0 -7 -7 -9 -16 -6 -15 6 -15 4 -3
-11 7 -10 9 -15 4 -10 -4 4 -17 -5 -27 -20 -22 -35 -22 -40 0 -46 16 -4 16 -5
-1 -6 -10 0 -15 -6 -12 -11 4 -6 1 -18 -7 -27 -8 -11 -9 -14 -1 -10 7 5 17 -2
24 -15 11 -20 10 -22 -3 -10 -13 11 -16 10 -14 -5 0 -10 8 -24 16 -31 8 -8 10
-11 3 -8 -6 4 -14 2 -17 -3 -3 -5 2 -12 12 -16 16 -7 15 -8 -3 -15 -11 -5 -14
-9 -7 -9 6 -1 12 -10 12 -22 0 -13 4 -18 12 -13 7 4 8 3 4 -4 -4 -7 -14 -12
-22 -12 -8 0 -12 -5 -9 -10 4 -6 9 -8 13 -6 4 2 7 -7 7 -20 0 -17 -4 -23 -14
-19 -11 4 -11 3 -1 -10 6 -8 12 -30 12 -50 0 -22 4 -33 11 -28 6 3 7 1 3 -6
-4 -6 -13 -8 -19 -4 -7 3 -5 -2 4 -13 22 -28 18 -49 -10 -49 -16 0 -25 7 -27
18 -1 12 2 17 11 14 9 -4 11 1 8 14 -3 10 -9 17 -13 14 -5 -3 -11 -1 -15 5 -6
9 8 14 28 11 5 -1 6 3 2 9 -4 6 -16 8 -28 5 -16 -5 -18 -4 -8 3 8 6 11 17 7
27 -3 10 -1 24 5 31 10 12 8 13 -7 7 -16 -6 -17 -5 -6 9 10 13 10 18 1 24 -8
4 -9 3 -5 -4 11 -18 0 -14 -15 5 -10 11 -10 14 -1 9 7 -4 12 -1 12 8 0 9 -6
16 -12 16 -10 0 -10 2 -1 8 8 5 9 13 3 22 -6 9 -4 20 3 29 9 12 9 13 0 7 -7
-4 -13 -3 -13 3 0 5 5 13 10 16 6 3 10 12 10 18 0 7 -4 6 -10 -3 -8 -12 -10
-8 -11 15 -1 17 -1 33 0 38 0 4 -4 7 -10 7 -5 0 -7 4 -4 10 4 6 -1 7 -12 3
-15 -6 -16 -5 -5 9 11 14 10 16 -7 11 -12 -3 -21 -1 -21 6 0 6 -8 8 -17 4 -16
-6 -17 -5 -3 13 14 18 14 18 -2 5 -10 -7 -24 -11 -32 -8 -10 4 -13 1 -10 -8 4
-9 -1 -13 -12 -11 -21 3 -68 -49 -61 -67 3 -8 -4 -13 -18 -13 -13 0 -21 4 -19
8 3 4 0 8 -6 8 -6 0 -8 5 -4 13 6 8 3 8 -9 -2 -9 -7 -24 -10 -33 -7 -11 4 -15
2 -11 -8 4 -10 1 -13 -8 -9 -8 3 -12 10 -8 16 3 6 -12 -4 -35 -23 -23 -18 -42
-35 -42 -38 0 -2 7 2 17 9 15 13 15 12 4 -9 -8 -16 -18 -22 -29 -18 -14 5 -14
4 1 -8 14 -10 15 -15 5 -19 -10 -4 -10 -8 2 -16 13 -10 13 -11 0 -11 -12 -1
-11 -3 3 -11 12 -7 15 -15 8 -26 -10 -19 -3 -53 11 -53 6 0 8 -9 5 -20 -3 -11
-2 -18 3 -15 4 3 11 -2 14 -11 4 -12 2 -15 -9 -10 -12 4 -13 2 -6 -13 6 -10 7
-21 4 -25 -3 -3 -1 -6 6 -6 8 0 11 6 7 16 -3 8 -2 12 3 9 6 -3 9 -14 8 -25 -1
-10 -5 -16 -9 -14 -4 3 -5 -2 -2 -10 3 -9 10 -16 14 -16 4 0 11 -7 14 -16 6
-15 4 -15 -11 -3 -15 12 -16 12 -8 -1 4 -8 15 -23 23 -32 8 -10 11 -22 6 -30
-13 -20 -13 -38 -2 -38 6 0 8 -9 5 -20 -3 -11 1 -27 9 -34 11 -11 11 -16 1
-19 -9 -4 -9 -6 1 -6 6 -1 12 -6 12 -12 0 -5 -4 -8 -9 -4 -5 3 -13 0 -17 -6
-4 -7 -3 -9 4 -5 6 3 13 2 16 -3 3 -5 -1 -12 -10 -15 -9 -4 -14 -9 -11 -13 12
-11 -14 -32 -30 -26 -13 5 -15 2 -10 -12 6 -14 4 -15 -5 -7 -15 11 -42 -10
-30 -24 4 -5 -2 -2 -12 6 -13 10 -17 10 -12 3 4 -8 2 -13 -4 -13 -6 0 -8 -4
-5 -10 3 -5 0 -7 -8 -4 -8 3 -18 0 -23 -7 -5 -8 -3 -10 6 -4 8 5 11 4 6 -3 -4
-6 -13 -9 -20 -6 -8 3 -17 0 -22 -7 -5 -8 -3 -10 6 -4 9 5 11 4 6 -4 -4 -6
-12 -9 -17 -5 -15 9 -41 -17 -34 -34 5 -12 3 -13 -10 -2 -9 7 -15 9 -14 4 4
-21 -2 -34 -16 -34 -8 0 -15 -8 -15 -17 0 -16 -2 -16 -11 -3 -9 12 -10 11 -6
-8 3 -13 -2 -31 -15 -45 l-19 -22 17 28 c9 15 12 27 8 27 -13 0 -30 -42 -26
-63 2 -10 8 -14 15 -10 7 4 6 0 -2 -10 -11 -14 -11 -18 2 -23 10 -3 13 -12 9
-22 -5 -15 -3 -15 10 -4 14 12 16 10 11 -10 -3 -13 -2 -19 3 -15 4 4 14 -3 22
-15 11 -19 12 -20 8 -3 -6 20 -6 20 9 1 16 -21 55 -30 52 -12 -1 6 6 10 16 9
11 0 16 4 14 11 -3 7 5 18 16 25 18 11 20 11 10 0 -7 -7 -13 -17 -13 -22 0 -5
9 2 21 17 11 14 18 30 14 36 -3 6 0 7 9 4 9 -3 16 -1 16 5 0 6 6 11 14 11 8 0
18 5 22 12 5 7 2 9 -7 4 -8 -4 -5 -1 5 8 10 8 24 12 30 9 6 -4 4 2 -4 13 -8
10 -11 16 -6 12 5 -4 15 0 24 8 12 13 16 13 23 2 7 -10 9 -10 10 2 1 8 1 19 0
24 -1 5 5 4 14 -4 12 -10 13 -16 3 -28 -10 -13 -10 -14 0 -8 7 4 12 1 12 -9 0
-9 4 -14 9 -11 11 7 9 -13 -3 -32 -4 -7 -4 -12 1 -11 22 4 25 -3 7 -17 -10 -8
-14 -13 -7 -10 14 8 27 -10 14 -18 -6 -4 -4 -17 4 -33 10 -18 11 -32 4 -45 -7
-13 -6 -18 2 -18 8 0 9 -4 0 -13 -8 -10 -7 -19 5 -33 14 -18 14 -18 4 6 -10
24 -10 24 4 6 10 -12 12 -23 7 -30 -10 -12 12 -50 22 -39 4 3 7 2 7 -4 0 -6 7
-14 16 -17 8 -3 13 -2 10 3 -3 4 6 6 19 3 15 -2 22 -9 18 -16 -4 -6 6 -3 21 8
16 10 25 12 21 5 -5 -8 -4 -10 3 -5 7 4 12 15 12 24 0 15 2 15 10 2 9 -14 14
-7 11 13 -1 5 3 6 9 2 6 -3 8 -10 5 -15 -3 -5 0 -12 6 -15 5 -4 8 -13 5 -21
-3 -8 0 -14 7 -14 8 0 6 -4 -3 -10 -11 -7 -11 -10 -2 -10 7 0 10 -4 7 -10 -3
-5 -1 -10 4 -10 6 0 11 5 11 12 0 6 3 8 6 5 4 -4 1 -14 -7 -24 -9 -11 -10 -14
-1 -9 8 5 15 -1 21 -16 7 -17 10 -19 10 -5 1 9 5 17 11 17 5 0 9 -4 7 -9 -2
-10 1 -11 43 -11 20 0 30 5 30 15 0 8 5 14 11 12 6 -1 14 4 17 12 3 9 0 11 -8
6 -9 -6 -11 -4 -5 4 5 9 10 10 18 2 15 -15 30 -14 21 1 -4 7 -3 8 4 4 7 -4 12
-19 12 -34 0 -22 2 -24 11 -12 9 12 10 10 6 -8 -5 -20 -3 -22 11 -10 12 10 14
10 8 1 -4 -7 -2 -13 3 -13 6 0 11 -7 11 -16 0 -8 5 -12 10 -9 5 3 10 1 10 -5
0 -6 5 -8 12 -4 15 9 85 15 72 6 -16 -12 -14 -44 3 -38 11 5 13 1 8 -15 -5
-16 -4 -19 6 -14 9 6 11 3 6 -9 -6 -14 -4 -15 16 -5 21 12 21 11 7 -6 -9 -11
-10 -16 -2 -11 6 4 12 3 12 -2 0 -5 7 -9 15 -9 8 0 12 4 10 8 -3 4 2 10 11 13
8 3 12 2 9 -4 -3 -6 1 -7 9 -4 9 3 13 11 9 18 -4 6 1 4 12 -4 17 -14 17 -13
10 9 -5 16 -4 21 4 17 6 -4 11 -2 11 4 0 6 5 8 13 4 7 -5 6 0 -3 11 -8 10 -10
16 -4 12 7 -4 14 -1 16 6 6 16 -2 38 -11 33 -4 -3 -8 1 -8 8 0 8 5 12 12 10 6
-3 11 5 12 16 1 11 -2 18 -7 15 -5 -3 -7 5 -4 17 9 39 12 112 4 99 -5 -10 -9
-9 -13 3 -4 9 -1 16 6 16 8 0 8 3 2 8 -15 10 -13 62 3 62 10 0 10 3 0 14 -7 8
-17 11 -23 8 -5 -2 -4 1 2 8 10 10 10 17 1 28 -9 10 -8 16 3 23 12 8 12 10 -1
19 -13 9 -13 10 0 10 13 0 13 1 0 10 -13 9 -13 10 0 10 13 0 13 1 0 10 -8 5
-11 10 -6 10 5 0 3 7 -4 15 -10 12 -9 15 5 15 16 0 16 2 -2 17 -10 10 -12 14
-4 8 11 -7 13 -7 7 3 -4 6 -8 30 -8 52 0 27 -4 38 -12 33 -6 -4 -5 1 3 10 10
13 10 17 1 17 -10 0 -10 3 0 15 7 8 9 15 4 15 -5 0 -10 11 -10 26 -2 23 -1 24
12 7 12 -17 13 -16 7 5 -3 12 -10 22 -15 22 -5 0 -6 4 -3 10 3 5 1 19 -5 30
-8 15 -8 20 2 20 10 0 10 2 -1 9 -11 7 -10 11 5 20 13 7 14 10 5 11 -8 0 -11
3 -8 7 4 3 1 13 -6 21 -10 13 -9 14 9 4 16 -9 21 -8 21 3 0 8 -5 11 -10 8 -6
-4 -8 0 -4 10 4 10 2 17 -5 17 -6 0 -3 10 8 22 10 12 14 19 9 15 -6 -3 -17 -2
-25 4 -13 7 -13 9 0 9 9 0 16 10 16 25 1 14 -2 25 -7 25 -5 0 -9 5 -9 11 0 5
4 8 8 5 4 -2 8 15 8 39 0 24 -4 41 -8 39 -3 -2 -10 1 -14 7 -4 8 -3 9 4 5 7
-4 12 -2 12 3 0 6 6 10 13 9 6 -2 11 2 10 9 -2 7 6 10 17 8 13 -3 18 0 14 7
-5 7 0 9 14 6 14 -4 19 -2 16 7 -3 6 3 18 13 26 16 13 17 12 4 -4 -12 -15 -12
-17 3 -11 9 3 16 10 16 15 0 5 8 9 17 9 15 0 14 2 -3 15 -18 14 -18 14 4 10
20 -3 21 -2 11 17 -9 16 -8 19 2 13 9 -6 11 -3 6 9 -5 11 -3 15 5 10 7 -5 9
-2 5 8 -3 9 -1 20 5 26 6 6 4 21 -8 43 -10 19 -17 37 -17 40 1 3 -4 6 -12 6
-8 0 -14 -3 -13 -6 2 -21 -4 -22 -18 -5 -8 10 -13 14 -10 7 10 -19 -12 -25
-24 -6 -10 16 -11 16 -6 1 3 -10 1 -20 -4 -23 -6 -4 -10 -1 -10 4 0 6 -5 11
-10 11 -6 0 -9 -5 -8 -11 4 -15 -30 -20 -39 -6 -11 18 -12 38 -2 31 13 -7 11
10 -2 23 -8 8 -7 13 2 18 8 6 10 4 4 -6 -7 -12 -6 -12 6 0 11 11 11 14 1 18
-10 4 -10 8 -1 19 6 8 7 14 2 14 -6 0 -8 12 -6 28 2 15 5 32 5 39 1 7 5 10 9
7 4 -2 10 0 14 6 3 5 -2 10 -12 10 -14 0 -15 2 -5 9 11 7 10 9 -3 14 -13 6
-14 11 -4 28 7 14 7 19 0 15 -6 -4 -21 0 -35 9 -22 14 -25 14 -40 0 -9 -10
-16 -12 -16 -5 0 6 -6 10 -12 7 -7 -2 -12 -10 -10 -17 3 -11 0 -11 -13 0 -13
11 -14 10 -8 -5 5 -15 3 -17 -10 -12 -15 6 -16 3 -7 -13 6 -11 7 -20 3 -19
-19 3 -27 -2 -15 -9 7 -5 10 -16 6 -25 -3 -9 -10 -14 -15 -11 -5 3 -6 -2 -3
-10 3 -9 11 -13 18 -10 6 3 2 -2 -8 -10 -15 -12 -16 -16 -5 -16 10 -1 9 -4 -4
-11 -18 -10 -18 -12 -1 -30 15 -17 15 -19 1 -19 -10 0 -14 -5 -11 -15 4 -9 0
-15 -7 -15 -12 0 -12 -2 0 -9 8 -5 10 -14 6 -21 -5 -9 -4 -11 3 -6 7 4 12 2
12 -3 0 -6 -5 -11 -11 -11 -8 0 -9 -4 0 -13 6 -8 8 -17 4 -21 -11 -10 -12 -37
-2 -30 5 3 9 0 9 -5 0 -6 -5 -11 -11 -11 -8 0 -7 -5 1 -16 11 -12 11 -15 -1
-12 -8 2 -13 -3 -11 -11 2 -9 -3 -11 -14 -7 -14 5 -15 4 -4 -9 11 -13 10 -14
-4 -9 -9 3 -16 14 -16 23 0 9 -6 23 -12 30 -11 11 -10 12 2 6 9 -5 7 1 -5 15
-11 13 -15 20 -9 17 7 -4 15 0 18 9 3 8 2 13 -2 11 -4 -3 -16 4 -27 15 -17 16
-17 18 -2 13 10 -4 17 -2 17 4 0 6 -6 11 -12 11 -9 0 -8 4 2 11 12 8 12 12 2
16 -10 4 -10 8 0 21 8 10 9 13 1 9 -6 -4 -15 -2 -19 4 -4 8 -3 9 4 5 7 -4 12
-2 12 4 0 6 4 8 10 5 6 -3 7 1 4 9 -3 9 -9 14 -13 11 -4 -2 -8 2 -8 10 0 8 4
12 8 9 4 -2 6 23 5 56 -2 33 1 60 6 60 5 0 6 5 3 10 -4 6 -11 7 -17 4 -7 -4
-8 -2 -4 5 4 6 12 9 17 6 5 -4 9 -1 9 4 0 6 -9 11 -21 11 -13 0 -18 4 -13 11
5 9 -1 10 -20 5 -18 -4 -25 -3 -21 4 3 5 4 10 1 10 -3 0 -7 -3 -7 -7z m286
-21 c-3 -3 -11 0 -18 7 -9 10 -8 11 6 5 10 -3 15 -9 12 -12z m-118 -168 c-3
-3 -12 -4 -19 -1 -8 3 -5 6 6 6 11 1 17 -2 13 -5z m-529 -18 c-7 -8 -15 -12
-17 -11 -5 6 10 25 20 25 5 0 4 -6 -3 -14z m508 -458 c5 -7 3 -8 -5 -4 -15 10
-11 -25 4 -37 6 -5 4 -7 -6 -4 -9 3 -16 -1 -16 -8 0 -8 7 -11 16 -8 11 4 9 0
-4 -10 -20 -16 -20 -16 3 -12 12 2 22 0 22 -6 0 -5 -10 -9 -22 -10 -20 0 -21
-1 -5 -8 10 -4 19 -11 19 -16 0 -6 5 -17 11 -25 11 -13 10 -13 -7 0 -15 11
-18 11 -12 1 11 -17 -15 -35 -26 -18 -4 7 -8 34 -8 60 0 32 -4 46 -11 42 -6
-4 -5 2 3 14 7 12 17 21 23 21 5 1 -1 8 -15 16 -14 8 -17 13 -8 10 10 -3 20
-1 23 4 8 13 12 12 21 -2z m-11 -182 c16 7 24 -16 14 -41 -4 -11 -8 -14 -8 -7
-1 6 -7 11 -13 10 -8 -2 -12 5 -10 16 2 10 -1 16 -6 12 -5 -3 -9 2 -9 10 0 9
4 11 10 5 5 -5 15 -7 22 -5z m-825 -400 c0 -3 -4 -8 -10 -11 -5 -3 -10 -1 -10
4 0 6 5 11 10 11 6 0 10 -2 10 -4z m1048 -211 c-3 -3 -9 2 -12 12 -6 14 -5 15
5 6 7 -7 10 -15 7 -18z"/>
<path d="M1185 880 c-3 -6 1 -7 9 -4 18 7 21 14 7 14 -6 0 -13 -4 -16 -10z"/>
<path d="M1130 1641 c0 -6 4 -13 10 -16 6 -3 7 1 4 9 -7 18 -14 21 -14 7z"/>
<path d="M1385 1621 c-3 -5 -2 -12 3 -15 5 -3 9 1 9 9 0 17 -3 19 -12 6z"/>
<path d="M1376 1468 c3 -5 10 -6 15 -3 13 9 11 12 -6 12 -8 0 -12 -4 -9 -9z"/>
<path d="M543 905 c0 -8 4 -12 9 -9 5 3 6 10 3 15 -9 13 -12 11 -12 -6z"/>
</g>
</svg>
